<mxfile host="app.diagrams.net" modified="2020-11-22T11:28:23.173Z" agent="5.0 (X11)" etag="Z_i8_P7Iupy3fFKBJpf4" version="13.8.2" type="github">
  <diagram id="yO2m6IJOwGG7Xonu4USR" name="Page-1">
    <mxGraphModel dx="1240" dy="703" grid="1" gridSize="10" guides="1" tooltips="1" connect="1" arrows="1" fold="1" page="1" pageScale="1" pageWidth="850" pageHeight="1100" math="0" shadow="0">
      <root>
        <mxCell id="0" />
        <mxCell id="1" parent="0" />
        <mxCell id="8wucHVrvaksiZ-zuGLNL-1" value="&lt;div&gt;Permintaan Pembelian&lt;/div&gt;" style="swimlane;html=1;childLayout=stackLayout;resizeParent=1;resizeParentMax=0;horizontal=0;startSize=20;horizontalStack=0;" vertex="1" parent="1">
          <mxGeometry x="40" y="80" width="760" height="600" as="geometry" />
        </mxCell>
        <mxCell id="8wucHVrvaksiZ-zuGLNL-2" value="Pemohon" style="swimlane;html=1;startSize=20;horizontal=0;" vertex="1" parent="8wucHVrvaksiZ-zuGLNL-1">
          <mxGeometry x="20" width="740" height="200" as="geometry" />
        </mxCell>
        <mxCell id="8wucHVrvaksiZ-zuGLNL-5" value="" style="shape=mxgraph.bpmn.shape;html=1;verticalLabelPosition=bottom;labelBackgroundColor=#ffffff;verticalAlign=top;align=center;perimeter=ellipsePerimeter;outlineConnect=0;outline=standard;symbol=general;" vertex="1" parent="8wucHVrvaksiZ-zuGLNL-2">
          <mxGeometry x="50" y="75" width="50" height="50" as="geometry" />
        </mxCell>
        <mxCell id="8wucHVrvaksiZ-zuGLNL-8" value="Task" style="shape=ext;rounded=1;html=1;whiteSpace=wrap;" vertex="1" parent="8wucHVrvaksiZ-zuGLNL-2">
          <mxGeometry x="140" y="60" width="120" height="80" as="geometry" />
        </mxCell>
        <mxCell id="8wucHVrvaksiZ-zuGLNL-3" value="Pemimpin" style="swimlane;html=1;startSize=20;horizontal=0;" vertex="1" parent="8wucHVrvaksiZ-zuGLNL-1">
          <mxGeometry x="20" y="200" width="740" height="200" as="geometry" />
        </mxCell>
        <mxCell id="8wucHVrvaksiZ-zuGLNL-6" value="" style="shape=mxgraph.bpmn.shape;html=1;verticalLabelPosition=bottom;labelBackgroundColor=#ffffff;verticalAlign=top;align=center;perimeter=ellipsePerimeter;outlineConnect=0;outline=end;symbol=general;" vertex="1" parent="8wucHVrvaksiZ-zuGLNL-3">
          <mxGeometry x="630" y="80" width="50" height="50" as="geometry" />
        </mxCell>
        <mxCell id="8wucHVrvaksiZ-zuGLNL-9" value="Task" style="shape=ext;rounded=1;html=1;whiteSpace=wrap;" vertex="1" parent="8wucHVrvaksiZ-zuGLNL-3">
          <mxGeometry x="260" y="65" width="120" height="80" as="geometry" />
        </mxCell>
        <mxCell id="8wucHVrvaksiZ-zuGLNL-4" value="Bagian Pembelian" style="swimlane;html=1;startSize=20;horizontal=0;" vertex="1" parent="8wucHVrvaksiZ-zuGLNL-1">
          <mxGeometry x="20" y="400" width="740" height="200" as="geometry" />
        </mxCell>
        <mxCell id="8wucHVrvaksiZ-zuGLNL-7" value="" style="shape=mxgraph.bpmn.shape;html=1;verticalLabelPosition=bottom;labelBackgroundColor=#ffffff;verticalAlign=top;align=center;perimeter=ellipsePerimeter;outlineConnect=0;outline=end;symbol=general;" vertex="1" parent="8wucHVrvaksiZ-zuGLNL-4">
          <mxGeometry x="640" y="75" width="50" height="50" as="geometry" />
        </mxCell>
        <mxCell id="8wucHVrvaksiZ-zuGLNL-10" value="Task" style="shape=ext;rounded=1;html=1;whiteSpace=wrap;" vertex="1" parent="8wucHVrvaksiZ-zuGLNL-4">
          <mxGeometry x="380" y="60" width="120" height="80" as="geometry" />
        </mxCell>
        <mxCell id="8wucHVrvaksiZ-zuGLNL-11" value="" style="shape=mxgraph.bpmn.shape;html=1;verticalLabelPosition=bottom;labelBackgroundColor=#ffffff;verticalAlign=top;align=center;perimeter=rhombusPerimeter;background=gateway;outlineConnect=0;outline=none;symbol=parallelGw;" vertex="1" parent="1">
          <mxGeometry x="540" y="380" width="50" height="50" as="geometry" />
        </mxCell>
      </root>
    </mxGraphModel>
  </diagram>
</mxfile>
